#!OML:ASF E:/inclinewalkrobotboard/Project1/Captureday1/Session1/subject1.ASF
:FULLY-SPECIFIED
:DEGREES
13
root 0 0 0 37.20001017186134 -25.374600787731076 0.649459382623542
lowerback -18.246134205410137 1.0245405721121743 -10.342224583320252
upperback -13.38272717782813 1.1940386323880214 0.4213630018373551
thorax -4.478421831146443 1.3768854101275798 6.785794305264866
lowerneck -8.25441986690198 2.8520483368198573 4.036461901730681
upperneck 35.35539490067909 2.1634985453109192 1.4980024763792121
head 13.315412612815297 1.5932262570552775 0.2832072917450682
rclavicle 3.8348530112070075E-15 1.3052446701431077E-15
rhumerus -63.88189355568489 -38.13708457939739 25.522383828684674
rradius 2.521462847161409
rwrist 78.8167747854485
rhand 17.968697942119963 -2.5201186801605697
rfingers 7.125020000000031
rthumb 42.58339168004397 -27.16097763535675
lclavicle 5.511435723830607E-15 3.5449229309101683E-15
lhumerus -12.125182210931113 16.18517167918177 7.359933381089263
lradius 13.729325203522418
lwrist -41.13636923013169
lhand 10.554681766887256 36.36429330439306
lfingers 7.125020000000025
lthumb 35.65069102837221 63.42433834944249
rfemur -44.163071986923796 3.969849290851684 13.01197715478581
rtibia 25.42399111952289
rfoot -59.55889849331597 -13.35879293038059
rtoes 56.616037892343485
lfemur -38.014387248695 -5.279032397426706 -39.95521164304446
ltibia 34.45389885734572
lfoot -33.663547437717156 24.111786744612292
ltoes 12.26812259865467
14
root 0 0 0 32.5017982765253 -17.415785903360288 2.4013053441901793
lowerback -16.652814383441783 -0.2024940178469259 -10.453661840964557
upperback -13.348277798682421 -0.38256844797828604 1.9328633821313146
thorax -5.2112523843230925 0.744096383730214 8.459839354926668
lowerneck -7.189987028769551 1.0427914711063013 2.0731687751960464
upperneck 34.65937668241747 0.16367150723133778 1.7373367605740695
head 12.855287613890344 0.48415715253051644 0.36494415633173016
rclavicle 2.378498257388346E-15 -2.1566684008766176E-17
rhumerus -65.03639578318243 -39.64322010210972 30.509042054459478
rradius 2.9167151129217395
rwrist 81.73694347356877
rhand 16.563008756097577 -1.5785600772256743
rfingers 7.125020000000036
rthumb 41.231318992388026 -26.488460248861372
lclavicle 5.679285462279186E-15 2.4316346469093853E-15
lhumerus -7.080822171646321 15.383032699763847 4.6899873744573455
lradius 14.971331828495924
lwrist -41.055212375709296
lhand 8.217027991721439 36.69639372903983
lfingers 7.125020000000022
lthumb 33.405365026571516 64.0114393796612
rfemur -45.156484704060134 3.6856152003728226 12.781608008035377
rtibia 25.380371776949048
rfoot -62.02573455571998 -12.592596553855003
rtoes 57.84647530811215
lfemur -34.611158659393965 -6.323303131995951 -41.339234603062245
ltibia 35.26341216813529
lfoot -29.768751461215736 22.609619809318666
ltoes 9.321387952193447
15
root 0 0 0 17.51166587297898 7.939941156249819 5.884099757767727
lowerback -12.53903149802829 -2.7361065058416507 -8.759867536417314
upperback -12.294179258150947 -3.422185025304361 6.348385645370394
thorax -6.110893855314232 -0.5080692253502337 12.104806215174339
lowerneck -4.627517852339427 -4.847704520821424 -4.004895785113646
upperneck 30.68425526900554 -6.3447820551279515 2.329260601781857
head 10.881422813476304 -3.1264378169830667 0.5502168302222666
rclavicle -1.1034129597269395E-16 -3.082596708279255E-15
rhumerus -67.00077288997024 -40.96280585244587 36.074650324746834
rradius 3.469581947270285
rwrist 81.66523340511264
rhand 15.482193311057006 -0.9620169423368612
rfingers 7.12502000000004
rthumb 40.19224195088468 -26.09478797046429
lclavicle 3.4276396182043198E-15 -1.8553550121210075E-15
lhumerus 4.415997553362258 15.880712865520447 0.592131155070291
lradius 15.949965744433005
lwrist -40.14861375498495
lhand 4.832601629654984 36.78542235643568
lfingers 7.125020000000015
lthumb 30.161409398890903 64.49896003109686
rfemur -47.19242845074862 4.807733702393108 13.97851790498602
rtibia 25.648725638540416
rfoot -63.680581942269235 -13.113335972866459
rtoes 58.336343029781105
lfemur -25.050213699528488 -9.772148460230687 -41.842007561215844
ltibia 35.517657610467154
lfoot -21.059437245384956 17.636646564803048
ltoes 1.314411813400314
16
root 0 0 0 10.937874016873046 37.1508842876881 5.116420551156402
lowerback -9.772228353737962 -4.00401037021912 -7.247544656617555
upperback -11.119680554566761 -4.855399658877406 8.670545733074746
thorax -5.946065767560503 -1.247149821666316 13.553708572957873
lowerneck -3.1442686488366007 -8.626130080542122 -7.431970426277565
upperneck 29.585952121131136 -10.33207987983986 0.4625727402630919
head 10.352455185886924 -5.454710056156433 -0.08554372789131182
rclavicle -3.2177779244390915E-15 -7.758111078546794E-15
rhumerus -65.97963515100737 -40.79190548877052 37.313240915227176
rradius 3.86708151197028
rwrist 78.76284938968968
rhand 15.424996172986667 -1.3061126636244733
rfingers 7.125020000000042
rthumb 40.135495015907075 -26.487498607283218
lclavicle -1.2728882340439802E-15 -8.471479570686638E-15
lhumerus 12.916190243759228 18.9199572375122 -1.3126018884720594
lradius 16.241349625095296
lwrist -39.76965922696139
lhand 1.4298989157086444 36.055228488102586
lfingers 7.125020000000001
lthumb 26.90989897657954 64.24307539704523
rfemur -50.31971389152628 7.100168212162828 16.182332433251844
rtibia 26.680719206970387
rfoot -65.01396587276682 -13.611339306368022
rtoes 58.50416214951612
lfemur -13.570754496092945 -13.988943690517514 -41.33693300115195
ltibia 34.308448252823986
lfoot -13.872539632970762 11.96103070574075
ltoes -7.332483550135462
17
root 0 0 0 9.624464158947816 47.36554772870174 3.393340610695345
lowerback -7.752366053740985 -4.870182229677738 -5.877180660579184
upperback -10.483794197369502 -5.9617886435260345 9.07014151161254
thorax -6.001319072406774 -1.9592627747921638 13.040923216916205
lowerneck -2.192017811776953 -9.754200365896422 -8.088846606326385
upperneck 31.674405723120078 -11.800403728980445 -0.6953793211772288
head 11.206000775473203 -6.249454105542579 -0.49833376597892265
rclavicle -5.476020385064022E-15 -9.819370704811514E-15
rhumerus -57.30401302254058 -40.89670889028393 35.429975768853346
rradius 4.884833980874408
rwrist 74.34400158166667
rhand 15.233879800996988 -2.13570849917976
rfingers 7.125020000000044
rthumb 39.96325071749349 -27.427374304679866
lclavicle -4.194470985659624E-15 -1.1356370759500243E-14
lhumerus 21.21349704011207 23.97155086029278 -0.44622645884516743
lradius 16.91109098012261
lwrist -39.5066906349287
lhand -2.8539157200018463 34.326146956626296
lfingers 7.125019999999978
lthumb 22.826667462705398 63.129367636555315
rfemur -53.5743080704259 8.853556866282418 18.340306340421705
rtibia 27.75292916249378
rfoot -67.03809552807824 -12.653053970831744
rtoes 58.128219699026985
lfemur -9.612116083397567 -14.61603997313644 -41.00959278779624
ltibia 34.9648019524168
lfoot -12.034973833771314 9.614822857989951
ltoes -10.804302594096951
18
root 0 0 0 9.861652199029994 49.72906913578329 2.5957138618226825
lowerback -7.551622694168862 -5.08416496202204 -5.375566479681893
upperback -10.528081382722416 -6.236764911816363 9.158245113839317
thorax -6.035996078666071 -2.1669598984620935 12.807593895502293
lowerneck -2.0155409610431754 -10.053913918410638 -8.30060585728585
upperneck 32.4572440220482 -12.228927635703936 -0.95454641781535
head 11.541764767163857 -6.467806304251842 -0.582328226400247
rclavicle -6.018577577965784E-15 -8.97950867799354E-15
rhumerus -45.77400566686309 -42.484009442546835 35.2024607396478
rradius 6.8948010781062585
rwrist 71.79331146566659
rhand 14.416048594614722 -2.3894867367051535
rfingers 7.125020000000045
rthumb 39.197602388543324 -27.88631104655275
lclavicle -3.607426362694579E-15 -9.775027570852129E-15
lhumerus 24.223760723418188 27.664958199531394 2.0505484342677747
lradius 17.703774803899915
lwrist -40.413232390982586
lhand -6.610281459382507 32.18672661644318
lfingers 7.125019999999962
lthumb 19.249599461668137 61.52810901972268
rfemur -54.59595562872909 8.256590538875301 18.671393987068654
rtibia 28.48669011597976
rfoot -69.81069995284739 -10.623621050100516
rtoes 57.57263606768572
lfemur -9.603467405448413 -13.673647296062475 -40.89786562330366
ltibia 37.89164657464302
lfoot -10.917815880801985 8.393307431927015
ltoes -12.153966844447764
19
root 0 0 0 10.278515987143098 50.64730798501279 2.119231082207156
lowerback -7.726494629548508 -5.127367815307556 -5.127089748436581
upperback -10.687047174261899 -6.286513159912548 9.226381483256512
thorax -6.058117805486805 -2.227784054127425 12.728517965802034
lowerneck -2.006036188600003 -10.182992482294317 -8.440782997885663
upperneck 32.71832390227428 -12.406042954549124 -1.0131358382104718
head 11.66194087713551 -6.557130731073505 -0.5941368476765736
rclavicle -5.170153539749717E-15 -7.36334154582544E-15
rhumerus -37.768754402939784 -43.951374467793414 35.655550888693874
rradius 8.624746053010622
rwrist 70.88741393365082
rhand 13.478394161380194 -2.188687099335402
rfingers 7.125020000000047
rthumb 38.3113629686687 -27.873592521697784
lclavicle -1.4561860570305432E-15 -6.929726341149846E-15
lhumerus 26.149110555627097 30.471425213170402 4.341402145266237
lradius 18.479544007288382
lwrist -41.78224480354916
lhand -9.600680140581282 29.915072460044357
lfingers 7.125019999999949
lthumb 16.39861650054784 59.6812722792171
rfemur -54.47286575924966 6.664077270302926 18.24642340681065
rtibia 29.027688015495364
rfoot -72.88900782781536 -8.44109930216884
rtoes 56.74788965271803
lfemur -12.306936811349601 -11.937273038944744 -41.266307379803266
ltibia 43.977355395833825
lfoot -8.780943804150208 7.2646983152811
ltoes -13.7979473563933
20
root 0 0 0 10.595666945529548 51.19523028434719 1.7598545500225473
lowerback -7.88622896949593 -5.146081812081103 -4.928381358540548
upperback -10.818739462207672 -6.30404160525219 9.2790587474417
thorax -6.075985876648986 -2.2632850324346254 12.665101002887692
lowerneck -2.0171959457154625 -10.26707402868228 -8.543198250617868
upperneck 32.876228515958516 -12.521660931778692 -1.035588400139738
head 11.73862698274011 -6.614874654916359 -0.5952966353826337
rclavicle -3.639728422737515E-15 -5.6876533984210375E-15
rhumerus -31.95789370521537 -44.66510306168179 35.51160096683123
rradius 9.959950891993753
rwrist 70.74217823612292
rhand 12.629704244541795 -1.8796627150482426
rfingers 7.125020000000049
rthumb 37.50473995373425 -27.715548830464435
lclavicle 1.3405463869576872E-15 -3.753554065591816E-15
lhumerus 28.68698577692443 32.64058259527607 6.01086353430793
lradius 19.191485822383804
lwrist -43.12311097510147
lhand -11.937522860803389 27.684371133665447
lfingers 7.125019999999936
lthumb 14.164591333012934 57.768945029009224
rfemur -54.063866723248736 4.744610233704918 17.660115051428193
rtibia 29.430735035379914
rfoot -76.32896093879366 -6.21939345359435
rtoes 55.76497422099766
lfemur -17.361354324681294 -9.407488547782547 -42.089245791373344
ltibia 53.15682534494815
lfoot -5.345184462092799 6.053777707291093
ltoes -16.167726748802878
